<svg width="57" height="57" viewBox="0 0 57 57" fill="none" xmlns="http://www.w3.org/2000/svg">
<path fill-rule="evenodd" clip-rule="evenodd" d="M46.3802 10.7138C41.729 6.0573 35.5437 3.4918 28.9536 3.4891C15.3751 3.4891 4.3236 14.5397 4.3183 28.1224C4.3164 32.4644 5.4508 36.7024 7.6067 40.4383L4.1117 53.204L17.1712 49.7783C20.7694 51.7409 24.8207 52.7754 28.9438 52.7768H28.9538C28.9546 52.7768 28.9532 52.7768 28.954 52.7768C42.5311 52.7768 53.5833 41.7251 53.589 28.1421C53.5914 21.5595 51.0313 15.3701 46.3802 10.7138ZM28.9537 48.6163H28.9454C25.2714 48.6149 21.6677 47.6277 18.5239 45.7622L17.7763 45.3185L10.0266 47.3513L12.0952 39.7955L11.6083 39.0207C9.5587 35.7607 8.4762 31.9927 8.4778 28.1238C8.4822 16.8344 17.6678 7.6498 28.962 7.6498C34.431 7.6515 39.5721 9.7842 43.438 13.6545C47.3038 17.5248 49.4316 22.6693 49.4294 28.1404C49.4248 39.4307 40.2395 48.6163 28.9537 48.6163Z" fill="white"/>
<path fill-rule="evenodd" clip-rule="evenodd" d="M40.1851 33.281C39.5696 32.9729 36.5432 31.484 35.979 31.2784C35.4148 31.073 35.0044 30.9703 34.5941 31.5865C34.1838 32.2026 33.0041 33.5892 32.645 34.0001C32.286 34.4107 31.9268 34.4624 31.3114 34.154C30.6959 33.8459 28.7125 33.196 26.3614 31.0989C24.5314 29.4666 23.2961 27.451 22.9369 26.8346C22.5779 26.2185 22.8987 25.8854 23.2069 25.5784C23.4838 25.3025 23.8225 24.8595 24.1303 24.5C24.438 24.1407 24.5406 23.8837 24.7458 23.4732C24.951 23.0623 24.8485 22.7028 24.6945 22.3948C24.5406 22.0867 23.3096 19.0569 22.7967 17.8242C22.2969 16.6241 21.7895 16.7867 21.4116 16.7676C21.0531 16.7497 20.6422 16.746 20.2319 16.746C19.8216 16.746 19.1546 16.9001 18.5905 17.5162C18.0263 18.1325 16.436 19.6218 16.436 22.6513C16.436 25.6812 18.6417 28.6082 18.9495 29.0189C19.2572 29.4299 23.29 35.6471 29.4648 38.3134C30.9334 38.9477 32.08 39.3264 32.9739 39.61C34.4485 40.0786 35.7904 40.0124 36.851 39.8539C38.0337 39.6772 40.4929 38.3649 41.0058 36.9272C41.5188 35.4892 41.5188 34.2566 41.3648 34C41.211 33.7433 40.8006 33.5892 40.1851 33.281Z" fill="white"/>
</svg>
